<?xml version="1.0" encoding="UTF-8"?>
<!DOCTYPE svg PUBLIC "-//W3C//DTD SVG 1.1//EN" "http://www.w3.org/Graphics/SVG/1.1/DTD/svg11.dtd">
<svg xmlns="http://www.w3.org/2000/svg" version="1.1" width="340px" height="340px" style="shape-rendering:geometricPrecision; text-rendering:geometricPrecision; image-rendering:optimizeQuality; fill-rule:evenodd; clip-rule:evenodd" xmlns:xlink="http://www.w3.org/1999/xlink">
<g><path style="opacity:1" fill="#e7ba98" d="M 226.5,155.5 C 218.554,160.148 210.887,165.315 203.5,171C 186.691,186.097 181.191,204.597 187,226.5C 177.244,203.426 182.078,183.926 201.5,168C 207.056,163.278 213.389,160.111 220.5,158.5C 205.897,125.958 190.73,93.6248 175,61.5C 170.535,56.5235 165.035,53.8569 158.5,53.5C 166.606,49.936 173.773,51.2694 180,57.5C 195.988,89.9771 211.488,122.644 226.5,155.5 Z"/></g>
<g><path style="opacity:0.999" fill="#656768" d="M 223.5,51.5 C 243.753,58.6607 252.92,72.994 251,94.5C 250.09,99.6513 248.09,104.318 245,108.5C 245.67,92.5093 241.67,77.8427 233,64.5C 229.204,60.5506 226.037,56.2173 223.5,51.5 Z"/></g>
<g><path style="opacity:1" fill="#e7b998" d="M 150.5,68.5 C 162.936,96.7076 175.936,124.708 189.5,152.5C 186.301,152.59 183.468,151.257 181,148.5C 167.667,120.5 154.333,92.5 141,64.5C 136.658,58.4162 130.825,55.0829 123.5,54.5C 132.506,50.6664 140.006,52.6664 146,60.5C 147.274,63.3911 148.774,66.0578 150.5,68.5 Z"/></g>
<g><path style="opacity:0.992" fill="#fee0bc" d="M 158.5,53.5 C 165.035,53.8569 170.535,56.5235 175,61.5C 190.73,93.6248 205.897,125.958 220.5,158.5C 213.389,160.111 207.056,163.278 201.5,168C 182.078,183.926 177.244,203.426 187,226.5C 181.191,204.597 186.691,186.097 203.5,171C 210.887,165.315 218.554,160.148 226.5,155.5C 230.617,152.876 233.45,149.21 235,144.5C 238.243,131.098 243.243,118.431 250,106.5C 255.124,99.5203 261.958,95.8536 270.5,95.5C 276.239,100.92 278.073,107.587 276,115.5C 270.061,131.049 264.395,146.715 259,162.5C 258,167.167 257,171.833 256,176.5C 259.828,230.307 235.662,263.474 183.5,276C 173.738,276.908 164.072,276.408 154.5,274.5C 151.243,273.538 148.243,272.038 145.5,270C 126.938,252.062 114.104,230.562 107,205.5C 94.8072,180.586 82.8072,155.586 71,130.5C 68.3456,122.773 70.1789,116.439 76.5,111.5C 83.3037,110.822 88.8037,113.155 93,118.5C 103,139.167 113,159.833 123,180.5C 125.363,183.44 128.196,184.773 131.5,184.5C 119.743,159.986 107.743,135.653 95.5,111.5C 95.5,110.833 95.1667,110.5 94.5,110.5C 93.0127,106.855 91.5127,103.188 90,99.5C 87.3672,90.1191 90.2005,83.1191 98.5,78.5C 105.26,78.9668 110.76,81.9668 115,87.5C 127.439,112.712 139.606,138.045 151.5,163.5C 153.899,165.539 156.566,166.705 159.5,167C 145.615,138.064 131.615,109.23 117.5,80.5C 117.5,79.8333 117.167,79.5 116.5,79.5C 113.432,72.1947 113.932,65.1947 118,58.5C 119.432,56.5612 121.265,55.2279 123.5,54.5C 130.825,55.0829 136.658,58.4162 141,64.5C 154.333,92.5 167.667,120.5 181,148.5C 183.468,151.257 186.301,152.59 189.5,152.5C 175.936,124.708 162.936,96.7076 150.5,68.5C 150.281,61.9371 152.948,56.9371 158.5,53.5 Z"/></g>
<g><path style="opacity:1" fill="#64696b" d="M 189.5,53.5 C 219.79,63.6363 233.29,84.6363 230,116.5C 229.261,120.385 227.927,124.052 226,127.5C 226.218,97.269 214.218,73.269 190,55.5C 189.536,54.9056 189.369,54.2389 189.5,53.5 Z"/></g>
<g><path style="opacity:1" fill="#e7b997" d="M 116.5,79.5 C 117.167,79.5 117.5,79.8333 117.5,80.5C 131.615,109.23 145.615,138.064 159.5,167C 156.566,166.705 153.899,165.539 151.5,163.5C 139.606,138.045 127.439,112.712 115,87.5C 110.76,81.9668 105.26,78.9668 98.5,78.5C 104.549,75.7832 110.549,76.1165 116.5,79.5 Z"/></g>
<g><path style="opacity:0.886" fill="#e6b897" d="M 270.5,95.5 C 280.717,98.2476 284.551,104.914 282,115.5C 276.34,131.811 270.674,148.145 265,164.5C 263.744,169.448 262.744,174.448 262,179.5C 265.471,229.781 243.304,262.281 195.5,277C 185.545,278.498 175.545,278.831 165.5,278C 161.509,277.502 157.842,276.335 154.5,274.5C 164.072,276.408 173.738,276.908 183.5,276C 235.662,263.474 259.828,230.307 256,176.5C 257,171.833 258,167.167 259,162.5C 264.395,146.715 270.061,131.049 276,115.5C 278.073,107.587 276.239,100.92 270.5,95.5 Z"/></g>
<g><path style="opacity:1" fill="#e7b998" d="M 94.5,110.5 C 95.1667,110.5 95.5,110.833 95.5,111.5C 107.743,135.653 119.743,159.986 131.5,184.5C 128.196,184.773 125.363,183.44 123,180.5C 113,159.833 103,139.167 93,118.5C 88.8037,113.155 83.3037,110.822 76.5,111.5C 82.1952,107.868 88.1952,107.535 94.5,110.5 Z"/></g>
<g><path style="opacity:1" fill="#64696c" d="M 100.5,227.5 C 99.8333,227.833 99.1667,228.167 98.5,228.5C 70.6282,218.771 57.7949,199.105 60,169.5C 60.5921,165.724 61.5921,162.057 63,158.5C 64.2654,179.303 71.5987,197.636 85,213.5C 90.3618,218.032 95.5284,222.699 100.5,227.5 Z"/></g>
<g><path style="opacity:1" fill="#646a6e" d="M 47.5,213.5 C 54.3677,220.535 61.7011,227.035 69.5,233C 80.0369,238.051 91.0369,241.718 102.5,244C 78.628,251.642 60.7946,244.475 49,222.5C 47.8512,219.607 47.3512,216.607 47.5,213.5 Z"/></g>
<g><path style="opacity:0.02" fill="#588297" d="M 100.5,227.5 C 102.645,227.917 103.312,228.917 102.5,230.5C 100.974,230.006 99.6412,229.339 98.5,228.5C 99.1667,228.167 99.8333,227.833 100.5,227.5 Z"/></g>
</svg>
