<svg xmlns="http://www.w3.org/2000/svg" xmlns:xlink="http://www.w3.org/1999/xlink" width="143" height="43" viewBox="0 0 143 43"><defs><path id="a" d="M0 .15h42.09v42.09H0z"></path><path id="c" d="M8.46.003v13.49c0 5.384-1.5 8.07-5.914 11.227L.18 26.39l1.126 1.593a.39.39 0 00.544.094l2.057-1.454c2.617-1.873 4.257-3.594 5.315-5.582 1.091-2.046 1.577-4.375 1.577-7.55V.393a.39.39 0 00-.39-.39H8.46z"></path><path id="f" d="M.148.067h25.596v13.874H.148z"></path><linearGradient id="d" x1="50%" x2="50%" y1="0%" y2="100%"><stop offset="0%" stop-color="#E9FFFF"></stop><stop offset="100%" stop-color="#01B1E7"></stop></linearGradient></defs><g fill="none" fill-rule="evenodd"><path fill="#FFF" d="M-81-41h1440v1553H-81z"></path><g transform="translate(0 .09)"><mask id="b" fill="#fff"><g></g></mask><path fill="#FFE411" d="M32.63 42.24H9.46A9.46 9.46 0 010 32.78V9.61A9.46 9.46 0 019.46.15h23.17a9.46 9.46 0 019.46 9.46v23.17a9.46 9.46 0 01-9.46 9.46" mask="url(#b)"></path></g><path fill="#FEFEFE" d="M16.423 34.63l-3.095-4.378a.39.39 0 01.094-.544l2.046-1.446c2.117-1.497 3.381-3.573 3.381-6.53V8.401a.39.39 0 01.39-.39h5.462v13.72c0 5.383-1.5 8.07-5.913 11.227l-2.365 1.671z"></path><g transform="translate(16.08 8.01)"><mask id="e" fill="#fff"><g></g></mask><path fill="url(#d)" d="M8.46.003v13.49c0 5.384-1.5 8.07-5.914 11.227L.18 26.39l1.126 1.593a.39.39 0 00.544.094l2.057-1.454c2.617-1.873 4.257-3.594 5.315-5.582 1.091-2.046 1.577-4.375 1.577-7.55V.393a.39.39 0 00-.39-.39H8.46z" mask="url(#e)"></path></g><g transform="translate(116.64 6.57)"><mask id="g" fill="#fff"><g></g></mask><path fill="#FFE411" d="M23.09 13.94H2.803a2.654 2.654 0 01-2.654-2.653V2.721A2.654 2.654 0 012.802.067H23.09a2.654 2.654 0 012.654 2.654v8.566a2.654 2.654 0 01-2.654 2.654" mask="url(#g)"></path></g><path fill="#080203" d="M128.183 18.297a.705.705 0 01-.705-.705v-7.333a.705.705 0 011.41 0v7.333c0 .39-.316.705-.705.705"></path><path fill="#080203" d="M128.81 14.221h1.56c.972 0 1.763-.79 1.763-1.762s-.79-1.762-1.762-1.762h-1.56v3.524zm1.56 1.256h-2.136a.68.68 0 01-.679-.68V10.12a.68.68 0 01.679-.679h2.137a3.021 3.021 0 013.017 3.018 3.02 3.02 0 01-3.017 3.018zm4.676 2.82a.705.705 0 01-.705-.705v-7.333a.705.705 0 011.41 0v7.333c0 .39-.316.705-.705.705"></path><path fill="#080203" d="M135.674 14.221h1.56c.971 0 1.762-.79 1.762-1.762s-.79-1.762-1.762-1.762h-1.56v3.524zm1.56 1.256h-2.137a.68.68 0 01-.679-.68V10.12a.68.68 0 01.679-.679h2.137a3.021 3.021 0 013.018 3.018 3.02 3.02 0 01-3.018 3.018zm-12.406.716h-4.022a.642.642 0 110-1.283h4.022a.642.642 0 010 1.283"></path><path fill="#080203" d="M119.888 18.297a.642.642 0 01-.6-.869l2.868-7.585a.642.642 0 011.2.454l-2.868 7.585a.642.642 0 01-.6.415"></path><path fill="#080203" d="M125.624 18.297a.641.641 0 01-.6-.415l-2.868-7.585a.641.641 0 111.2-.454l2.868 7.586a.642.642 0 01-.6.868"></path><path fill="#050101" d="M62.635 18.297h-9.176a1.712 1.712 0 110-3.424h9.176a1.712 1.712 0 010 3.424m6.219 19.353a1.712 1.712 0 01-1.712-1.713l.003-27.323A2.828 2.828 0 0169.97 5.79h7.875a2.825 2.825 0 012.825 2.825v21.547a5.758 5.758 0 01-1.69 4.083 5.76 5.76 0 01-4.084 1.691h-.506a1.722 1.722 0 01-1.727-1.71c0-.946.766-1.713 1.712-1.713h.52c1.447-.016 2.36-1.232 2.352-2.351V9.617a.404.404 0 00-.404-.404h-5.87a.404.404 0 00-.404.403l-.003 26.321c0 .946-.767 1.712-1.712 1.712"></path><path fill="#050101" d="M54.177 23.67c0 .223.18.404.404.404h5.627a.96.96 0 00.96-.96V9.644a.404.404 0 00-.404-.403h-6.183a.404.404 0 00-.404.403V23.67zm9.445 13.98c-.457 0-.913-.183-1.25-.542l-2.59-2.765a.836.836 0 00-1.189-.034l-2.596 2.473a3.084 3.084 0 01-3.363.605 3.086 3.086 0 01-1.881-2.852V8.642a2.826 2.826 0 012.825-2.825h8.189a2.825 2.825 0 012.825 2.825v14.472a4.36 4.36 0 01-1.284 3.1 4.355 4.355 0 01-3.1 1.283h-5.627a.404.404 0 00-.404.404v4.944c0 .355.425.538.683.293l1.625-1.548a3.887 3.887 0 012.811-1.078 3.888 3.888 0 012.745 1.236l2.83 3.019a1.712 1.712 0 01-1.25 2.882zm22.361-7.786a1.64 1.64 0 01-.956-2.976l8.808-6.299h-7.819a1.64 1.64 0 01-.978-2.958l9.174-6.803H85.92a1.641 1.641 0 010-3.281h13.259a1.64 1.64 0 01.978 2.958l-9.173 6.803h7.967a1.641 1.641 0 01.955 2.974l-12.97 9.276c-.29.207-.623.306-.953.306m18.867.744a1.668 1.668 0 01-1.668-1.667V9.213a1.667 1.667 0 013.335 0v19.728c0 .92-.747 1.667-1.667 1.667m-5.982 6.831a1.66 1.66 0 01-1.212-.524l-4.772-5.054a1.668 1.668 0 012.425-2.29l4.772 5.056a1.667 1.667 0 01-1.213 2.812"></path><path fill="#050101" d="M104.864 37.64l-.973-.001a1.667 1.667 0 01.002-3.335h.971c2.168 0 4.754-1.94 4.762-4.666l-.001-23.04a1.667 1.667 0 113.334-.001l.002 22.934c0 5.332-4.286 8.109-8.097 8.109m-18.878.1a1.64 1.64 0 01-.955-2.976l13.122-9.375a1.64 1.64 0 011.908 2.67L86.94 37.433c-.29.207-.623.306-.953.306m6.243-27.713a1.64 1.64 0 01-1.64-1.641v-1.76a1.641 1.641 0 013.281 0v1.76a1.64 1.64 0 01-1.64 1.64"></path></g></svg>