<svg t="1725279402699" class="icon" viewBox="0 0 1675 1024" version="1.1" xmlns="http://www.w3.org/2000/svg" p-id="1472" width="200" height="200"><path d="M1675.636364 670.254545c0 93.090909-74.472727 167.563636-167.563637 167.563637H851.781818c-93.090909 0-167.563636-74.472727-167.563636-167.563637V353.745455c0-93.090909 74.472727-167.563636 167.563636-167.563637h656.290909c93.090909 0 167.563636 74.472727 167.563637 167.563637v316.50909z" fill="#EC2027" p-id="1473"></path><path d="M854.295273 705.768727v-344.436363h-69.818182v-69.818182h195.490909v69.818182h-69.818182v344.436363h-55.854545z m311.854545-311.854545v311.854545h-55.854545v-32.581818c-4.654545 23.272727-27.927273 37.236364-51.2 37.236364-37.236364 0-51.2-23.272727-51.2-74.472728v-242.036363h55.854545v204.8c0 13.963636 0 23.272727 4.654546 37.236363 4.654545 13.963636 9.309091 18.618182 18.618181 18.618182s18.618182-4.654545 23.272728-18.618182v-242.036363h55.854545z m46.545455 311.854545v-414.254545h55.854545v130.327273c9.309091-23.272727 27.927273-37.236364 46.545455-37.236364 27.927273 0 46.545455 18.618182 55.854545 60.509091 4.654545 32.581818 9.309091 69.818182 4.654546 107.054545 0 32.581818 0 69.818182-9.309091 102.4-9.309091 37.236364-27.927273 60.509091-55.854546 60.509091-23.272727 0-46.545455-18.618182-46.545454-41.890909v32.581818h-51.2z m83.781818-260.654545c-13.963636 0-23.272727 13.963636-27.927273 46.545454v125.672728c4.654545 23.272727 13.963636 32.581818 27.927273 32.581818s23.272727-13.963636 23.272727-41.890909v-60.509091-60.509091c0-27.927273-9.309091-41.890909-23.272727-41.890909z m228.072727 153.6h51.2v9.309091c0 27.927273-4.654545 55.854545-18.618182 79.127272-13.963636 18.618182-37.236364 27.927273-60.509091 23.272728-23.272727 0-46.545455-9.309091-60.50909-27.927273-13.963636-23.272727-18.618182-46.545455-18.618182-69.818182v-74.472727-65.163636c0-18.618182 4.654545-41.890909 18.618182-55.854546 9.309091-18.618182 32.581818-32.581818 60.50909-32.581818 27.927273 0 51.2 13.963636 65.163637 37.236364 13.963636 37.236364 18.618182 74.472727 18.618182 116.363636v23.272727h-107.054546v18.618182c0 18.618182 0 32.581818 4.654546 51.2 4.654545 18.618182 13.963636 32.581818 23.272727 32.581818 13.963636-4.654545 23.272727-23.272727 23.272727-65.163636z m-55.854545-88.436364h55.854545v-13.963636c0-13.963636 0-27.927273-4.654545-37.236364-4.654545-9.309091-13.963636-18.618182-23.272728-18.618182s-18.618182 4.654545-18.618181 13.963637c-4.654545 13.963636-9.309091 27.927273-4.654546 41.890909v4.654545c-4.654545 4.654545-4.654545 9.309091-4.654545 9.309091z" fill="#FFFFFF" p-id="1474"></path><path d="M83.781818 710.423273v-176.872728L0 291.514182h65.163636l46.545455 158.254545 46.545454-158.254545h65.163637l-79.127273 242.036363v176.872728H83.781818z m162.909091-158.254546c0-37.236364 0-79.127273 13.963636-116.363636 9.309091-27.927273 37.236364-51.2 69.818182-51.2s65.163636 18.618182 74.472728 51.2c9.309091 37.236364 13.963636 79.127273 13.963636 116.363636s0 79.127273-13.963636 116.363637c-9.309091 32.581818-41.890909 51.2-74.472728 51.2-32.581818 0-65.163636-18.618182-74.472727-51.2-4.654545-37.236364-9.309091-79.127273-9.309091-116.363637z m55.854546 4.654546v65.163636c4.654545 27.927273 13.963636 41.890909 27.927272 41.890909s23.272727-13.963636 27.927273-37.236363v-88.436364-55.854546c-4.654545-27.927273-13.963636-37.236364-27.927273-37.236363s-23.272727 9.309091-23.272727 27.927273v51.2l-4.654545 32.581818z m316.50909-162.909091v316.509091h-55.854545v-32.581818c-4.654545 23.272727-27.927273 37.236364-51.2 37.236363-37.236364 0-55.854545-23.272727-55.854545-74.472727v-246.690909H512v204.8c0 13.963636 0 23.272727 4.654545 37.236363 4.654545 13.963636 9.309091 18.618182 18.618182 18.618182s18.618182-4.654545 23.272728-18.618182c4.654545-13.963636 4.654545-27.927273 4.654545-37.236363v-204.8h55.854545z" p-id="1475"></path></svg>